# xmcd
#
# Track frame offsets:
#	150
#	20018
#	35543
#	54435
#	68212
#	85633
#	102288
#	120170
#	136598
#	150845
#	169177
#	187338
#	206370
#	222971
#	238882
#
# Disc length: 3393 seconds
#
# Revision: 0
# Processed by: cddbd v1.5.2PL0 Copyright (c) Steve Scherf et al.
# Submitted via: audiograbber 1.83.01
#
DISCID=c30d3f0f
DTITLE=Belo - Prá Ser Amor
DYEAR=1900
DGENRE=
TTITLE0=O Meu Amor É Belo
TTITLE1=Tudo Outra Vez
TTITLE2=Direito De Amar
TTITLE3=Vai A Pé
TTITLE4=Falso Deus
TTITLE5=Prá Ser Amor (Marina Elali)
TTITLE6=Defeito Meu
TTITLE7=Conquista
TTITLE8=Vem Meu Amor
TTITLE9=O Céu Beijando O Mar
TTITLE10=O Vinho E A Flor
TTITLE11=Intimidade
TTITLE12=Tá Na Ira (Jorge Versilo)
TTITLE13=Perde e Ganha
TTITLE14=Tudo Mudou
EXTD=
EXTT0=
EXTT1=
EXTT2=
EXTT3=
EXTT4=
EXTT5=
EXTT6=
EXTT7=
EXTT8=
EXTT9=
EXTT10=
EXTT11=
EXTT12=
EXTT13=
EXTT14=
PLAYORDER=
